<?xml version="1.0" standalone="no"?>
<!DOCTYPE svg PUBLIC "-//W3C//DTD SVG 20010904//EN"
 "http://www.w3.org/TR/2001/REC-SVG-20010904/DTD/svg10.dtd">
<svg version="1.0" xmlns="http://www.w3.org/2000/svg"
 width="300.000000pt" height="300.000000pt" viewBox="0 0 300.000000 300.000000"
 preserveAspectRatio="xMidYMid meet">
<metadata>
Created by potrace 1.14, written by Peter Selinger 2001-2017
</metadata>
<g transform="translate(0.000000,300.000000) scale(0.100000,-0.100000)"
fill="#000000" stroke="none">
<path d="M131 2615 c9 -11 45 -56 80 -100 35 -44 67 -81 71 -83 15 -7 8 -29
-17 -52 -13 -12 -23 -26 -21 -29 2 -3 -3 -19 -10 -36 -10 -24 -13 -26 -14 -10
0 12 5 26 12 33 9 9 9 12 0 12 -13 0 -131 -72 -132 -80 0 -5 105 -60 115 -60
2 0 6 15 8 33 l4 32 -1 -35 c0 -20 3 -40 6 -45 8 -15 25 -99 43 -220 34 -226
71 -308 163 -362 41 -24 56 -27 124 -26 69 1 86 6 141 36 76 42 90 64 81 137
-8 68 -15 81 -76 143 -59 59 -88 103 -88 135 0 20 5 22 50 22 43 0 55 4 76 27
23 25 25 33 19 78 -8 67 -43 122 -112 182 -124 106 -128 108 -212 108 -42 0
-94 -3 -116 -7 -22 -4 -32 -4 -22 0 15 6 5 19 -60 77 -43 39 -90 79 -103 90
l-25 20 16 -20z m367 -220 c52 -27 187 -166 201 -208 14 -40 9 -77 -5 -42 -15
38 -67 95 -120 131 -48 33 -57 36 -96 30 -52 -8 -117 -51 -130 -85 -5 -14 -6
-60 -2 -105 6 -69 15 -98 60 -193 43 -92 60 -117 95 -142 61 -45 141 -40 196
11 l21 20 12 -21 c6 -12 10 -41 8 -64 -3 -40 -6 -43 -58 -69 -131 -65 -263 -3
-303 142 -42 151 -74 420 -50 420 16 0 32 45 22 61 -17 28 -8 37 44 44 69 10
72 12 38 41 -41 34 -69 31 -86 -8 -10 -24 -14 -27 -14 -13 -1 25 7 36 39 59
28 20 76 16 128 -9z m-181 -147 c-3 -8 -6 -5 -6 6 -1 11 2 17 5 13 3 -3 4 -12
1 -19z m209 -10 c47 -35 114 -101 114 -113 0 -6 -16 -19 -36 -30 -47 -25 -56
-43 -43 -90 13 -47 28 -70 81 -125 l41 -44 -23 -18 c-27 -22 -62 -23 -105 -2
-28 13 -43 35 -89 129 -49 98 -67 155 -51 155 2 0 24 -13 47 -29 48 -33 61
-32 32 2 -38 43 -84 115 -84 131 0 24 37 56 64 56 13 0 36 -10 52 -22z"/>
<path d="M1537 2375 c-2 -26 -6 -48 -8 -49 -2 -2 -33 -5 -69 -7 -58 -4 -65 -2
-68 16 -6 29 -32 55 -55 55 -16 0 -18 -4 -12 -22 4 -13 9 -38 12 -55 6 -35 -8
-45 -87 -64 -19 -4 -47 -11 -62 -15 -24 -5 -29 -1 -47 35 -18 35 -26 41 -52
41 l-31 0 23 -37 c12 -21 26 -42 31 -48 14 -16 9 -21 -64 -59 -40 -21 -79 -44
-87 -51 -24 -23 -3 -64 64 -129 68 -66 140 -105 280 -151 138 -46 155 -48 257
-31 150 24 183 33 255 71 184 96 227 152 162 213 -16 15 -29 31 -29 36 0 5 16
27 36 48 l36 40 -22 22 -21 21 -43 -49 c-36 -41 -47 -48 -67 -43 -51 14 -52
20 -17 86 32 60 32 62 14 76 -25 19 -39 7 -72 -57 -13 -26 -31 -48 -38 -48
-18 0 -149 69 -159 84 -4 6 -5 26 -2 45 5 23 1 38 -11 52 -27 30 -41 23 -47
-26z m-322 -242 c-20 -58 -14 -142 15 -190 10 -18 15 -35 11 -38 -27 -16 -231
130 -231 166 0 15 134 89 160 90 8 0 24 6 34 14 28 21 30 13 11 -42z m580 14
c11 -7 36 -19 55 -27 47 -18 100 -58 100 -75 0 -16 -6 -21 -70 -68 -51 -37
-147 -83 -155 -75 -3 3 4 23 17 44 25 43 31 152 10 192 -11 19 -10 22 5 22 10
0 27 -6 38 -13z"/>
<path d="M2195 1976 c-84 -84 -167 -215 -211 -331 -15 -38 -32 -79 -39 -90
-26 -43 -45 -130 -35 -166 16 -56 60 -96 116 -105 71 -10 110 -30 130 -64 22
-36 78 -60 140 -60 36 0 54 7 83 29 20 16 52 32 71 36 54 11 90 33 100 61 28
72 3 186 -90 424 -26 69 -52 136 -56 150 -22 80 -92 170 -132 170 -15 0 -43
-19 -77 -54z m139 -88 c44 -95 90 -209 111 -278 10 -30 24 -71 32 -90 22 -56
31 -138 20 -182 -10 -41 -15 -45 -95 -69 -24 -7 -57 -23 -74 -36 -18 -13 -42
-23 -54 -23 -35 0 -74 18 -74 34 0 27 -56 61 -130 80 -44 11 -82 27 -92 38
-20 22 -23 68 -9 96 6 9 17 42 27 72 9 30 30 80 48 110 17 30 40 71 51 91 64
116 156 229 186 229 14 0 28 -20 53 -72z"/>
<path d="M818 1503 c-31 -5 -33 -15 -17 -61 8 -24 7 -36 -4 -54 -24 -36 -44
-164 -46 -289 -1 -19 -7 -44 -15 -54 -13 -18 -15 -17 -29 16 -8 20 -18 56 -22
80 -4 24 -11 50 -15 59 -22 43 -44 104 -49 137 l-6 37 -65 -2 c-36 0 -66 -1
-68 -2 -1 0 2 -10 9 -21 8 -17 7 -34 -6 -77 -18 -56 -18 -146 1 -349 9 -91 -1
-97 -81 -48 -62 37 -105 44 -149 24 -20 -9 -29 -9 -42 2 -14 12 -19 10 -40
-16 -13 -17 -24 -33 -24 -38 0 -4 20 -17 44 -29 36 -17 48 -30 62 -67 39 -104
199 -291 289 -339 59 -32 79 -39 165 -58 180 -40 332 1 434 117 64 74 216 301
216 324 0 29 23 49 92 77 32 12 58 26 58 29 0 4 -7 23 -15 43 l-16 37 -29 -21
c-16 -12 -32 -25 -35 -30 -11 -18 -33 -11 -28 9 6 25 -24 76 -52 89 -31 14
-54 -3 -96 -72 -18 -31 -37 -56 -41 -56 -12 0 -11 3 17 59 26 51 57 134 77
204 8 29 7 41 -3 53 -12 14 -8 20 24 46 20 17 37 33 37 38 0 4 -16 20 -35 34
l-35 27 -17 -36 c-14 -29 -21 -35 -38 -29 -64 21 -121 -25 -163 -132 -30 -75
-55 -124 -63 -124 -3 0 -9 64 -13 142 -7 155 -11 167 -75 225 -25 24 -35 42
-35 65 -1 34 -9 39 -58 31z m100 -333 l4 -160 30 -25 c16 -14 38 -25 49 -25
26 0 72 51 94 104 42 100 76 164 91 170 31 12 34 5 14 -34 -25 -49 -25 -58 0
-35 36 33 23 -14 -54 -193 -43 -99 -45 -130 -12 -161 40 -38 95 -6 158 89 l30
45 -6 -45 c-5 -38 -14 -52 -53 -87 -26 -24 -43 -43 -37 -43 5 0 15 5 21 11 6
6 16 10 22 8 15 -5 -140 -237 -196 -296 -24 -24 -69 -56 -101 -71 -49 -23 -70
-27 -152 -27 -100 0 -186 21 -225 55 -11 10 -32 20 -46 24 -49 11 -202 186
-224 255 -8 27 -1 26 52 -5 25 -14 47 -24 49 -21 2 2 -25 30 -61 62 -36 32
-65 64 -65 72 0 28 33 25 102 -11 82 -42 120 -46 142 -14 18 26 21 84 6 123
-11 29 -22 269 -13 291 6 17 23 18 23 1 0 -7 15 -35 33 -62 18 -28 39 -69 45
-92 17 -59 92 -110 138 -93 25 10 40 72 51 213 8 103 22 125 37 58 15 -70 28
-47 21 37 -7 75 -7 76 11 59 17 -15 19 -38 22 -177z"/>
<path d="M1943 891 c-46 -16 -100 -39 -120 -51 -21 -12 -69 -31 -106 -42 -174
-48 -249 -127 -183 -193 31 -31 111 -71 172 -86 55 -13 95 -32 139 -64 17 -12
55 -32 85 -44 30 -12 64 -26 75 -31 42 -18 121 -36 205 -45 39 -4 194 16 223
28 17 8 52 20 77 27 63 19 97 36 161 85 31 24 67 46 80 50 51 16 138 66 153
87 46 65 -21 138 -164 178 -25 7 -97 36 -160 64 -104 46 -123 51 -202 54 -76
3 -93 1 -124 -17 -44 -26 -58 -26 -92 -1 -47 34 -124 34 -219 1z m166 -25
c-11 -10 -89 -15 -89 -6 0 5 21 10 47 10 25 0 44 -2 42 -4z m66 -404 c140 -2
247 0 293 8 41 6 76 9 79 6 8 -7 -61 -34 -152 -59 -59 -15 -109 -21 -190 -21
-96 0 -119 3 -185 28 -41 16 -82 35 -90 44 -13 13 -13 14 5 6 11 -4 119 -10
240 -12z"/>
</g>
</svg>
